# xmcd CD database file
#
# Track frame offsets:
#	150
#	11688
#	24637
#	36604
#	50615
#	65640
#	79421
#	95473
#	107314
#	117752
#	131864
#	143834
#	156672
#
# Disc length: 2254 seconds
#
# Revision: 1
# Processed by: cddbd v1.5.2PL0 Copyright (c) Steve Scherf et al.
# Submitted via: CDex 1.51
#
DISCID=bb08cc0d
DTITLE=Joni Harms - After All
DYEAR=2001
DGENRE=Country
TTITLE0=Weakness for Cowboys
TTITLE1=More Than Your Eyes Can See
TTITLE2=Every Cowgirl's Dream
TTITLE3=After All
TTITLE4=Keep On Dreamin'
TTITLE5=West Texas Waltz
TTITLE6=Ay Yi Yi Yi
TTITLE7=Millie
TTITLE8=A Cowboy Wedding
TTITLE9=It'll Happen When It's Time
TTITLE10=Cowboy Coffee
TTITLE11=Sunday Go To Meeting Clothes
TTITLE12=I Want To Sing For You
EXTD=YEAR: 2001
EXTT0=
EXTT1=
EXTT2=
EXTT3=
EXTT4=
EXTT5=
EXTT6=
EXTT7=
EXTT8=
EXTT9=
EXTT10=
EXTT11=
EXTT12=
PLAYORDER=
